<svg xmlns="http://www.w3.org/2000/svg" viewBox="0 0 128 128"><defs><linearGradient id="bgGradient" x1="0%" y1="0%" x2="100%" y2="100%"><stop offset="0%" style="stop-color:#667eea"/><stop offset="100%" style="stop-color:#764ba2"/></linearGradient></defs><circle cx="64" cy="64" r="60" fill="url(#bgGradient)"/><path d="M64 20c-8 0-15 3-20 8v-8c0-4-3-7-7-7h-2c-4 0-7 3-7 7v8c-11 9-17 22-17 37v22l-7 7v3h78v-3l-7-7V67c0-15-6-28-17-37v-8c0-4-3-7-7-7h-2c-4 0-7 3-7 7v8c-5-5-12-8-20-8z" fill="#ffffff"/><ellipse cx="64" cy="52" rx="15" ry="20" fill="#f5f5f7" opacity="0.9"/><text x="64" y="60" font-family="Arial" font-size="24" font-weight="bold" fill="#667eea" text-anchor="middle">₹</text><path d="M95 45c3 5 5 11 5 17s-2 12-5 17" stroke="#ffffff" stroke-width="3" fill="none" stroke-linecap="round" opacity="0.8"/><path d="M100 38c5 8 8 17 8 26s-3 18-8 26" stroke="#ffffff" stroke-width="3" fill="none" stroke-linecap="round" opacity="0.6"/></svg>
